<?xml version="1.0" encoding="UTF-8"?><svg id="Layer_1" xmlns="http://www.w3.org/2000/svg" viewBox="0 0 75 75"><defs><style>.cls-1{fill:#fff;}</style></defs><path class="cls-1" d="m41.78,16.37c.02-.44-.07-.75-.26-.94-.1-.1-.24-.17-.4-.2-.05,0-.11-.01-.17-.01-.14,0-.29.02-.46.05-.71.15-1.37.41-2.01.72-1.03,2-1.82,4.19-2.62,6.18,1.61-.32,2.94-.94,4.03-1.87,1.18-1.01,1.83-2.37,1.88-3.92Z"/><path class="cls-1" d="m45.45,29.34l.54-.23c-.12-.07-.23-.14-.35-.22.48-.02.93-.09,1.35-.22l.66-.28c.44-.19.89-.44,1.33-.76.56-.39,1.41-1.23.87-2.49-.3-.72-.91-1.18-1.61-1.29-.07,0-.13-.02-.2-.02-.18,0-.37.02-.57.08-1.25.34-2.49.77-3.65,1.33-1.54.72-3.2,1.2-4.91,1.17-1.38-.03-2.51-.38-3.62-1.03-.25-.1-.5-.21-.75-.34,0,0-.02-.01-.03-.01-2.23,12.86-6.24,25.72-14.64,35.72-.86,1.14-1.76,2.25-2.69,3.32-.44.44.44,1.33.89,1.33,4.57-2.92,9.22-5.63,13.16-9.41,3.63-3.48,6.73-7.46,9.68-11.52,3.47-4.76,6.76-9.66,10.57-14.15-.44.06-.87.09-1.3.09-.06,0-.12-.01-.18-.02-.79,0-1.56-.12-2.28-.35l-2.29-.72Z"/><path class="cls-1" d="m56.38,12.73c.08.22.07.49-.02.79l1.57-.58c-.28-.24-.24-.46-.33-.69-.26-.69-.87-1.16-1.62-1.26-1.05-.13-2.17.45-2.98,1.58-1.54,2.12-5.01,6.78-5.05,6.83l1.05.78s3.51-4.71,5.05-6.84c.63-.86,1.31-1.11,1.75-1.05.28.04.48.19.57.43Z"/><path class="cls-1" d="m52,10.6c-2.7-1.35-5.46-1.33-8.28.06-1.36.67-2.59,1.62-3.68,2.85.29-.06.56-.09.82-.09.98,0,1.59.42,1.94.78.53.55.79,1.31.75,2.24-.07,2.07-.94,3.87-2.5,5.21-1.3,1.11-2.85,1.85-4.71,2.24,2.3.87,4.47.78,6.64-.26,1.19-.57,2.53-1.06,3.96-1.45.34-.09.69-.14,1.03-.14,1.55,0,2.9.92,3.53,2.4.63,1.49.28,3.03-.91,4.17.19-.01.38-.03.57-.06,2.64-.37,4.63-1.92,5.45-4.23.52-1.46.75-3.08.68-4.7-.18-4.09-2.16-7.46-5.29-9.03Z"/></svg>