<?xml version="1.0" encoding="UTF-8"?><svg id="Layer_1" xmlns="http://www.w3.org/2000/svg" viewBox="0 0 75 75"><defs><style>.cls-1{fill:#ff0;}</style></defs><path class="cls-1" d="m37.5,5.17l9.25,18.24c.89,1.76,2.58,2.99,4.53,3.29l20.21,3.16-14.49,14.44c-1.4,1.39-2.04,3.38-1.73,5.33l3.24,20.2-18.21-9.32c-1.76-.9-3.84-.9-5.6,0l-18.21,9.32,3.24-20.2c.31-1.95-.33-3.93-1.73-5.33L3.51,29.87l20.21-3.16c1.95-.31,3.64-1.53,4.53-3.29l9.25-18.24Z"/><g><g><path d="m40.93,35.53s.07-.07.1-.1c0,0,.01-.01.02-.02.13-.12.27-.22.4-.3.52-.3,1.04-.61,1.57-.91.05-.03.07-.01.04.04-.3.52-.59,1.05-.89,1.57-.17.29-.4.54-.69.75-.46.33-.88.38-1.01.13-.11-.22.02-.61.33-1,.04-.05.09-.1.13-.15Z"/><path d="m42.77,41.32s.09.04.13.05c0,0,.02,0,.02.01.16.07.31.16.44.25.48.36.97.73,1.45,1.09.05.03.04.06-.02.05-.6-.07-1.2-.14-1.79-.22-.33-.04-.66-.16-.96-.34-.48-.29-.7-.66-.51-.88.16-.19.57-.22,1.05-.08.06.02.13.04.19.06Z"/><path d="m38.16,45.26s0,.1,0,.14c0,0,0,.02,0,.03,0,.18-.03.35-.07.5-.15.59-.3,1.17-.44,1.76-.01.06-.04.06-.05,0-.17-.58-.33-1.16-.5-1.74-.09-.32-.11-.67-.06-1.02.08-.56.34-.9.62-.81.23.08.42.44.48.94,0,.07.01.13.02.2Z"/><path d="m32.73,42.53s-.09.04-.13.06c0,0-.02,0-.03,0-.17.07-.33.11-.49.13-.6.09-1.19.18-1.79.27-.06,0-.07-.01-.02-.05.47-.38.94-.75,1.41-1.13.26-.21.57-.36.92-.45.55-.14.96-.03.98.25.02.24-.25.56-.68.81-.06.03-.12.06-.18.09Z"/><path d="m33.15,36.47s-.07-.07-.1-.1c0,0-.01-.01-.02-.02-.12-.13-.23-.26-.31-.4-.32-.52-.63-1.03-.94-1.55-.03-.05-.01-.07.04-.04.53.29,1.06.57,1.59.86.29.16.55.39.77.67.34.45.4.87.15,1.01-.22.11-.61,0-1.01-.31-.05-.04-.1-.08-.15-.13Z"/></g><path d="m36.97,33.4s0-.1,0-.14c0,0,0-.02,0-.03,0-.18.03-.35.08-.5.16-.58.33-1.16.49-1.75.02-.06.04-.05.05,0,.15.58.3,1.17.45,1.75.08.33.09.67.03,1.02-.1.56-.37.89-.64.79-.23-.08-.41-.46-.46-.95,0-.07,0-.13-.01-.2Z"/></g></svg>