<?xml version="1.0" encoding="UTF-8"?><svg id="Layer_1" xmlns="http://www.w3.org/2000/svg" viewBox="0 0 75 75"><defs><style>.cls-1{fill:#fff;}</style></defs><rect class="cls-1" x="38.25" y="28.93" width="2.55" height="2.03" rx=".43" ry=".43"/><rect class="cls-1" x="41.99" y="28.93" width="2.55" height="2.03" rx=".43" ry=".43"/><rect class="cls-1" x="30.76" y="28.93" width="2.55" height="2.03" rx=".43" ry=".43"/><rect class="cls-1" x="34.5" y="28.93" width="2.55" height="2.03" rx=".43" ry=".43"/><rect class="cls-1" x="38.27" y="32.04" width="2.65" height="2.11" rx=".43" ry=".43"/><path class="cls-1" d="m44.81,32.47c0-.24-.19-.43-.43-.43h-1.78c-.24,0-.43.19-.43.43v1.24c0,.24.19.43.43.43h1.74c.15-.21.31-.41.47-.6v-1.07Z"/><rect class="cls-1" x="30.49" y="32.04" width="2.65" height="2.11" rx=".43" ry=".43"/><rect class="cls-1" x="34.38" y="32.04" width="2.65" height="2.11" rx=".43" ry=".43"/><rect class="cls-1" x="38.11" y="35.01" width="2.82" height="2.24" rx=".43" ry=".43"/><path class="cls-1" d="m42.34,35.01c-.24,0-.43.19-.43.43v1.37c0,.24.19.43.43.43h.03c.41-.77.86-1.52,1.35-2.24h-1.38Z"/><path class="cls-1" d="m32.98,37.25c.24,0,.43-.19.43-.43v-1.37c0-.24-.19-.43-.43-.43h-1.69c.48.72.93,1.47,1.35,2.24h.34Z"/><rect class="cls-1" x="34.11" y="35.01" width="2.82" height="2.24" rx=".43" ry=".43"/><rect class="cls-1" x="38.11" y="38.08" width="2.82" height="2.24" rx=".43" ry=".43"/><rect class="cls-1" x="34.11" y="38.08" width="2.82" height="2.24" rx=".43" ry=".43"/><path class="cls-1" d="m40.57,41.07h-2.02c-.24,0-.43.19-.43.43v1.43c0,.24.19.43.43.43h1.2c.26-.75.55-1.51.86-2.29-.01,0-.02,0-.03,0Z"/><path class="cls-1" d="m36.48,43.36c.24,0,.43-.19.43-.43v-1.43c0-.24-.19-.43-.43-.43h-2.02s-.04,0-.05,0c.31.77.59,1.53.85,2.29h1.22Z"/><path class="cls-1" d="m39.52,44.03h-1.16c-.24,0-.43.19-.43.43v1.59c0,.24.19.43.43.43h.39c.09-.31.18-.62.28-.93.15-.49.32-1,.5-1.53Z"/><path class="cls-1" d="m36.26,46.48h.4c.24,0,.43-.19.43-.43v-1.59c0-.24-.19-.43-.43-.43h-1.17c.17.52.34,1.03.5,1.53.1.31.19.62.28.93Z"/><path class="cls-1" d="m38.17,47.29c-.24,0-.43.19-.43.43v1.76c0,.16.08.29.21.37.16-.84.35-1.7.58-2.56h-.36Z"/><path class="cls-1" d="m37.25,49.48v-1.76c0-.24-.19-.43-.43-.43h-.34c.23.86.42,1.72.58,2.56.12-.08.2-.21.2-.36Z"/><rect class="cls-1" x="38.06" y="25.92" width="2.52" height="2" rx=".43" ry=".43"/><rect class="cls-1" x="41.55" y="25.92" width="2.52" height="2" rx=".43" ry=".43"/><rect class="cls-1" x="31.08" y="25.92" width="2.52" height="2" rx=".43" ry=".43"/><rect class="cls-1" x="34.57" y="25.92" width="2.52" height="2" rx=".43" ry=".43"/><rect class="cls-1" x="38.16" y="23.01" width="2.52" height="2" rx=".43" ry=".43"/><rect class="cls-1" x="41.37" y="23.01" width="2.52" height="2" rx=".43" ry=".43"/><rect class="cls-1" x="31.35" y="23.01" width="2.52" height="2" rx=".43" ry=".43"/><rect class="cls-1" x="34.52" y="23.01" width="2.52" height="2" rx=".43" ry=".43"/><rect class="cls-1" x="38.14" y="20.03" width="2.44" height="1.94" rx=".43" ry=".43"/><rect class="cls-1" x="41.26" y="20.03" width="2.44" height="1.94" rx=".43" ry=".43"/><rect class="cls-1" x="31.53" y="20.03" width="2.44" height="1.94" rx=".43" ry=".43"/><rect class="cls-1" x="34.61" y="20.03" width="2.44" height="1.94" rx=".43" ry=".43"/><rect class="cls-1" x="38.09" y="17.28" width="2.21" height="1.76" rx=".43" ry=".43"/><rect class="cls-1" x="40.9" y="17.28" width="2.21" height="1.76" rx=".43" ry=".43"/><rect class="cls-1" x="32.12" y="17.28" width="2.21" height="1.76" rx=".43" ry=".43"/><rect class="cls-1" x="34.9" y="17.28" width="2.21" height="1.76" rx=".43" ry=".43"/><rect class="cls-1" x="38.05" y="14.8" width="2.04" height="1.62" rx=".43" ry=".43"/><rect class="cls-1" x="40.65" y="14.8" width="2.04" height="1.62" rx=".43" ry=".43"/><rect class="cls-1" x="32.55" y="14.8" width="2.04" height="1.62" rx=".43" ry=".43"/><rect class="cls-1" x="35.11" y="14.8" width="2.04" height="1.62" rx=".43" ry=".43"/><rect class="cls-1" x="38" y="12.67" width="1.76" height="1.4" rx=".43" ry=".43"/><rect class="cls-1" x="40.24" y="12.67" width="1.76" height="1.4" rx=".43" ry=".43"/><rect class="cls-1" x="33.23" y="12.67" width="1.76" height="1.4" rx=".43" ry=".43"/><rect class="cls-1" x="35.44" y="12.67" width="1.76" height="1.4" rx=".43" ry=".43"/><rect class="cls-1" x="37.9" y="11.01" width="1.31" height="1.04" rx=".43" ry=".43"/><rect class="cls-1" x="39.57" y="11.01" width="1.31" height="1.04" rx=".43" ry=".43"/><rect class="cls-1" x="34.35" y="11.01" width="1.31" height="1.04" rx=".43" ry=".43"/><rect class="cls-1" x="36" y="11.01" width="1.31" height="1.04" rx=".43" ry=".43"/><rect class="cls-1" x="37.05" y="9.48" width="1.31" height="1.04" rx=".43" ry=".43"/><rect class="cls-1" x="38.73" y="9.48" width="1.31" height="1.04" rx=".43" ry=".43"/><rect class="cls-1" x="35.16" y="9.48" width="1.31" height="1.04" rx=".43" ry=".43"/><rect class="cls-1" x="36.56" y="8.15" width="1.01" height=".81" rx=".4" ry=".4"/><rect class="cls-1" x="37.83" y="8.15" width="1.01" height=".81" rx=".4" ry=".4"/><path class="cls-1" d="m49.02,30.53c-.16.09-.33.18-.53.28-.19.1-.38.2-.46.25-3.46,2.45-6.27,7.24-8.59,14.62-.52,1.67-.93,3.32-1.19,4.91-.03.19-.07.39-.1.59-.21,1.23-.46,2.62-.4,3.85v.03s-.26,1.35-.26,1.35l-.26-1.35v-.03c.06-1.23-.18-2.62-.4-3.85-.04-.2-.07-.4-.1-.59-.27-1.6-.67-3.25-1.19-4.91-1.61-5.11-4.04-11.39-8.59-14.62-.08-.05-.26-.15-.46-.25-.19-.1-.37-.19-.53-.28.17.42.43,1.07.82,2.07l.65,1.63c1.03,1.72,1.15,4.35,1.25,6.47.02.49.05.95.08,1.37.22,2.98.57,5.85,1.06,8.52l.03.15c.41,2.26.87,4.83,2.76,6.2.06.05,1.19.98,2.09,2.08l.02.03v.04c.24.63.41,1.26.52,1.89v.04s.13,5.83.13,5.83h4.21l.13-5.87c.12-.63.29-1.27.51-1.89v-.04s.04-.03.04-.03c.86-1.06,1.95-1.97,2.07-2.07,1.67-1.21,2.27-3.43,2.64-5.44.65-3.55,1.01-7.06,1.27-10.03.04-.43.06-.89.09-1.38.12-2.01.25-4.29,1.19-5.87.79-1.98,1.23-3.09,1.47-3.7Z"/></svg>