<?xml version="1.0" encoding="UTF-8"?><svg id="Layer_1" xmlns="http://www.w3.org/2000/svg" viewBox="0 0 75 75"><defs><style>.cls-1{fill:#fff;}.cls-2{fill:#39c;opacity:.81;}</style></defs><rect class="cls-2" x="0" y="-.14" width="75" height="75"/><path class="cls-1" d="m9.61,41.43s.02,0,.02.02h.68s.01-.04.01-.06c0,0,0-.01,0-.02,0-.02,0-.03,0-.05,0-.02,0-.03,0-.05,0,0,0-.01,0-.02,0-.01.01-.02.02-.03.07-.21.25-.37.48-.4v-2.81c0-.16.13-.3.3-.3s.3.13.3.3v3.03c.96.46,2.03.6,3.1.6.02,0,.04,0,.06,0,0,0,.02,0,.02,0,.41,0,.81,0,1.22-.01.16,0,.32,0,.48,0,.45,0,.91-.02,1.36-.04.13,0,.26,0,.39-.01.53-.02,1.05-.04,1.58-.06.06,0,.12,0,.17,0,.94-.04,1.89-.07,2.83-.11,0-.03-.01-.05-.01-.08v-4c0-.16.13-.3.3-.3s.3.13.3.3v4s0,.04,0,.06c.05,0,.1,0,.14,0,.16,0,.32-.01.47-.02.43-.02.85-.03,1.28-.04.31,0,.62-.01.93-.02.28,0,.55-.01.83-.02.59,0,1.17-.02,1.75-.01.43-.01.85-.03,1.28-.04.17,0,.34,0,.51-.01.26,0,.52-.01.77-.02.25,0,.5,0,.75-.01.17,0,.35,0,.52,0,.66,0,1.31-.02,1.97-.03v-3.86c0-.16.13-.3.3-.3s.3.13.3.3v3.85c.15,0,.3,0,.44,0,.28,0,.56,0,.84-.01.18,0,.35,0,.53-.01.25,0,.5-.01.75-.02.19,0,.38-.01.57-.02.21,0,.41-.01.62-.02.01,0,.03,0,.04,0,.05,0,.1,0,.15,0,1.72-.06,3.44-.3,5.1-.76.09-.02.18-.05.27-.07.05-.01.09-.02.14-.03.07-.01.13-.03.2-.04.04,0,.09-.02.14-.02.07-.01.14-.02.22-.03.04,0,.08-.01.12-.01.11,0,.21-.02.32-.02,0,0,.01,0,.02,0,.25,0,.51,0,.76,0v-2.74c0-.16.13-.3.3-.3s.3.13.3.3v2.74c1.16,0,2.33,0,3.49,0,.04,0,.08,0,.12,0,.04,0,.08,0,.11,0,0,0,0,0,.01,0,.38-.05.76-.12,1.14-.13.02,0,.04,0,.06,0,.05,0,.1,0,.15,0,.19,0,.37,0,.56-.01.07,0,.15,0,.22,0,.21,0,.43,0,.64,0,.14,0,.28,0,.42,0,.11,0,.22,0,.33,0,.14,0,.28,0,.43,0,.09,0,.18,0,.28,0,.15,0,.3,0,.45-.02.08,0,.16,0,.24-.01.17,0,.34-.02.51-.03.06,0,.12,0,.18-.01.23-.02.46-.04.69-.07.39-.05.77-.11,1.16-.16v-2.29c0-.16.13-.3.3-.3s.3.13.3.3v2.21c2.1-.29,4.21-.61,6.2-1.3.07-.02.15-.05.22-.07,0,0,0,0,.01,0,.02,0,.04-.02.06-.03.01,0,.02-.01.03-.02.02,0,.03-.02.04-.03.01,0,.02-.02.03-.03,0,0,.02-.02.03-.03.01-.01.02-.03.04-.05,0,0,.01-.02.02-.03.01-.02.02-.04.03-.06,0,0,0-.02.01-.02,0-.02.02-.04.02-.07,0,0,0-.02,0-.03,0-.02.01-.04.01-.07,0-.01,0-.02,0-.04,0-.02,0-.04,0-.06,0-.02,0-.03,0-.05,0-.02,0-.03,0-.05,0-.02,0-.04,0-.06,0-.01,0-.02,0-.04,0-.02,0-.05-.01-.07,0,0,0-.02,0-.03,0-.02-.02-.05-.02-.07,0,0,0-.02-.01-.02,0-.02-.02-.04-.03-.06,0,0-.01-.02-.02-.03-.01-.02-.02-.03-.04-.05,0-.01-.02-.02-.03-.03-.01-.01-.02-.02-.03-.03-.01-.01-.03-.02-.04-.03,0,0-.02-.01-.03-.02-.02-.01-.04-.02-.06-.03,0,0,0,0-.01,0-.07-.03-.15-.05-.22-.07-.1-.03-.2-.07-.3-.1v.54c0,.16-.13.3-.3.3s-.3-.13-.3-.3v-.73c-2.29-.67-4.71-.92-7.06-1.26-.23-.03-.46-.05-.69-.07-.06,0-.12,0-.18-.01-.17-.01-.34-.02-.51-.03-.08,0-.16,0-.24-.01-.15,0-.3-.01-.45-.02-.09,0-.18,0-.28,0-.14,0-.28,0-.43,0-.11,0-.22,0-.33,0-.14,0-.28,0-.42,0-.2,0-.41,0-.61,0v2.15c0,.16-.13.3-.3.3s-.3-.13-.3-.3v-2.16c-.07,0-.14,0-.22,0-.05,0-.1,0-.15,0-.02,0-.04,0-.06,0-.38-.01-.76-.08-1.14-.13,0,0,0,0-.01,0-.04,0-.07,0-.11,0-.04,0-.08,0-.12,0-1.61,0-3.23-.02-4.84,0,0,0-.01,0-.02,0-.11,0-.21,0-.32-.02-.04,0-.08,0-.12-.01-.07,0-.14-.02-.22-.03-.05,0-.09-.02-.14-.02-.07-.01-.13-.03-.2-.04-.05-.01-.09-.02-.14-.03-.09-.02-.18-.04-.27-.07-1.03-.28-2.08-.49-3.14-.61v3.2c0,.16-.13.3-.3.3s-.3-.13-.3-.3v-3.27c-.46-.04-.91-.07-1.37-.09-.05,0-.1,0-.15,0-.01,0-.03,0-.04,0-.21,0-.41-.01-.62-.02-.19,0-.38-.01-.57-.02-.25,0-.5-.01-.75-.02-.18,0-.35,0-.53-.01-.28,0-.56,0-.84-.01-.15,0-.3,0-.45,0-.85-.01-1.71-.02-2.56-.03-.17,0-.35,0-.52,0-.25,0-.5,0-.75-.01-.26,0-.52-.01-.77-.02-.17,0-.34,0-.51-.01-.26,0-.52-.02-.78-.02v3.51c0,.16-.13.3-.3.3s-.3-.13-.3-.3v-3.52c-.55,0-1.1,0-1.65-.01-.28,0-.55-.01-.83-.02-.31,0-.62-.01-.93-.02-.43-.01-.85-.03-1.28-.04-.16,0-.32-.01-.47-.02-1.18-.04-2.36-.09-3.55-.14-.06,0-.12,0-.17,0-.53-.02-1.05-.04-1.58-.06-.13,0-.26,0-.39-.01-.11,0-.23,0-.34,0v3.92c0,.16-.13.3-.3.3s-.3-.13-.3-.3v-3.93c-.14,0-.29,0-.43-.01-.16,0-.32,0-.48,0-.41,0-.81-.01-1.22-.01,0,0-.02,0-.02,0-.02,0-.04,0-.06,0-.69,0-1.39.06-2.06.23-.22.05-.43.12-.64.2-.1.04-.2.08-.3.13-.09.04-.2.08-.27.14-.1.08-.22.13-.36.13-.26,0-.47-.17-.54-.4,0,0-.01-.02-.02-.03,0,0,0-.01,0-.02,0-.02,0-.03,0-.05,0-.02,0-.03,0-.05,0,0,0-.01,0-.02,0-.02,0-.04-.01-.06h-.68s-.02,0-.02.02c0,0,0,0,0,.01v7.84s0,0,0,.01Z"/></svg>