<?xml version="1.0" encoding="UTF-8"?><svg id="Layer_1" xmlns="http://www.w3.org/2000/svg" viewBox="0 0 75 75"><defs><style>.cls-1{fill:#fff;}.cls-2{fill:#093;opacity:.81;}</style></defs><rect class="cls-2" x="0" y="0" width="75" height="75"/><g><path class="cls-1" d="m29.27,49.91s.01,0,.02,0l.36-.36s-.02-.03-.03-.04c0,0,0,0,0-.01,0,0-.02-.02-.02-.03,0,0-.02-.02-.02-.03,0,0,0,0-.01,0,0,0,0-.02,0-.02-.08-.15-.06-.33.04-.47l-1.49-1.49c-.09-.09-.09-.23,0-.32s.23-.09.32,0l1.61,1.61c.75-.26,1.4-.76,1.96-1.32,0-.01.02-.02.03-.03,0,0,0,0,.01-.01.21-.22.43-.44.64-.65.08-.09.17-.17.25-.26.24-.25.47-.49.7-.74.07-.07.14-.14.2-.21.27-.29.54-.58.81-.87.03-.03.06-.06.09-.1.48-.52.96-1.04,1.44-1.56-.02,0-.03-.02-.05-.04l-2.12-2.12c-.09-.09-.09-.23,0-.32s.23-.09.32,0l2.12,2.12s.02.02.03.03c.02-.03.05-.05.07-.08.08-.09.16-.17.24-.26.22-.23.44-.47.66-.7.16-.17.32-.34.48-.5.14-.15.29-.3.43-.45.31-.32.61-.63.92-.94.22-.23.44-.47.66-.7.09-.09.18-.18.26-.27.13-.14.27-.28.4-.42.13-.14.26-.27.39-.41.09-.09.18-.19.27-.28.34-.35.69-.71,1.03-1.06l-2.05-2.05c-.09-.09-.09-.23,0-.32s.23-.09.32,0l2.05,2.05c.08-.08.15-.16.23-.24.15-.15.29-.3.44-.45.09-.09.18-.19.27-.28.13-.14.26-.27.39-.41.1-.1.2-.21.29-.31.11-.11.21-.22.32-.34,0,0,.01-.02.02-.02.03-.03.05-.05.08-.08.88-.95,1.66-1.99,2.3-3.11.03-.06.07-.12.11-.18.02-.03.04-.06.06-.09.03-.04.06-.08.08-.13.02-.03.04-.06.06-.08.03-.04.07-.09.1-.13.02-.02.04-.05.06-.07.05-.06.1-.12.16-.18,0,0,0,0,0-.01.14-.13.27-.27.4-.4l-1.45-1.45c-.09-.09-.09-.23,0-.32s.23-.09.32,0l1.45,1.45c.62-.62,1.23-1.24,1.85-1.86.02-.02.04-.05.06-.07.02-.02.04-.04.06-.06,0,0,0,0,0,0,.17-.23.34-.46.53-.67.01-.01.02-.02.03-.03.03-.03.05-.05.08-.08.1-.1.19-.2.29-.3.04-.04.08-.08.12-.12.11-.11.23-.23.34-.34.07-.07.15-.15.22-.22.06-.06.11-.12.17-.17.07-.08.15-.15.22-.23.05-.05.1-.1.14-.15.08-.08.16-.17.23-.25.04-.04.08-.09.12-.13.09-.1.17-.19.26-.29.03-.03.06-.07.09-.1.11-.13.22-.27.33-.41.18-.23.35-.47.53-.7l-1.22-1.22c-.09-.09-.09-.23,0-.32s.23-.09.32,0l1.18,1.18c.96-1.27,1.91-2.56,2.6-3.98.03-.05.05-.1.08-.16,0,0,0,0,0,0,0-.02.01-.03.02-.05,0,0,0-.02,0-.02,0-.01,0-.03,0-.04,0-.01,0-.02,0-.03,0-.01,0-.02,0-.03,0-.01,0-.03,0-.04,0,0,0-.02,0-.02,0-.02,0-.03-.02-.05,0,0,0-.01,0-.02,0-.02-.01-.03-.02-.05,0,0,0-.01-.01-.02,0-.01-.02-.03-.03-.04,0,0-.01-.01-.02-.02,0-.01-.02-.02-.03-.03,0,0-.02-.02-.02-.03,0,0-.02-.02-.03-.02-.01-.01-.02-.02-.03-.03,0,0-.01-.01-.02-.02-.01-.01-.03-.02-.04-.03,0,0-.01,0-.02-.01-.02,0-.03-.02-.05-.02,0,0-.01,0-.02,0-.02,0-.03-.01-.05-.02,0,0-.02,0-.02,0-.01,0-.03,0-.04,0-.01,0-.02,0-.03,0-.01,0-.02,0-.03,0-.01,0-.03,0-.04,0,0,0-.02,0-.02,0-.02,0-.03.01-.05.02,0,0,0,0,0,0-.05.03-.1.05-.16.08-.07.03-.14.07-.21.11l.29.29c.09.09.09.23,0,.32s-.23.09-.32,0l-.39-.39c-1.57.86-2.99,2.01-4.42,3.08-.14.11-.27.22-.41.33-.03.03-.07.06-.1.09-.1.08-.19.17-.29.26-.05.04-.09.08-.13.12-.08.08-.17.15-.25.23-.05.05-.1.1-.15.14-.08.07-.15.15-.23.22-.06.06-.12.11-.17.17-.07.07-.15.15-.22.22-.11.11-.22.22-.33.32l1.14,1.14c.09.09.09.23,0,.32s-.23.09-.32,0l-1.15-1.15s-.08.08-.12.11c-.03.03-.05.05-.08.08-.01.01-.02.02-.03.03-.21.2-.45.36-.67.53,0,0,0,0,0,0-.02.02-.04.04-.06.06-.02.02-.04.04-.07.06-.86.86-1.73,1.71-2.58,2.57,0,0,0,0-.01,0-.06.06-.12.11-.18.16-.02.02-.05.04-.07.06-.04.03-.09.07-.13.1-.03.02-.06.04-.08.06-.04.03-.08.06-.13.08-.03.02-.06.04-.09.06-.06.04-.12.07-.18.11-.7.4-1.36.85-1.99,1.34l1.7,1.7c.09.09.09.23,0,.32s-.23.09-.32,0l-1.73-1.73c-.26.22-.52.45-.77.68-.03.03-.05.05-.08.08,0,0-.02.01-.02.02-.11.11-.22.21-.34.32-.1.1-.21.2-.31.29-.14.13-.27.26-.41.39-.09.09-.19.18-.28.27-.15.15-.3.29-.45.44-.08.08-.16.16-.24.23-.46.45-.92.9-1.38,1.34-.09.09-.19.18-.28.27-.14.13-.27.26-.41.39-.14.13-.28.27-.42.4-.09.09-.18.18-.27.26-.14.14-.29.27-.43.4l1.86,1.86c.09.09.09.23,0,.32s-.23.09-.32,0l-1.87-1.87c-.29.29-.59.58-.89.87-.15.14-.3.29-.45.43-.17.16-.33.32-.5.48-.23.22-.47.44-.7.66-.09.08-.17.16-.26.24-.65.6-1.31,1.21-1.96,1.81-.03.03-.06.06-.1.09-.29.27-.58.54-.87.81-.07.07-.14.14-.21.2-.06.06-.12.12-.19.18l2.08,2.08c.09.09.09.23,0,.32s-.23.09-.32,0l-2.09-2.09c-.08.07-.16.15-.23.22-.09.08-.17.17-.26.25-.22.21-.44.42-.65.64,0,0,0,0-.01.01-.01,0-.02.02-.03.03-.37.37-.71.77-.97,1.21-.09.14-.16.29-.23.45-.03.08-.07.15-.09.23-.03.07-.06.14-.07.22,0,.1-.05.19-.12.26-.14.14-.34.16-.5.07,0,0-.02,0-.02,0,0,0,0,0,0-.01-.01,0-.02-.01-.03-.02,0,0-.02-.02-.03-.03,0,0,0,0-.01,0-.01,0-.03-.02-.04-.03l-.36.36s0,.01,0,.02c0,0,0,0,0,.01h.01s4.14,4.15,4.14,4.15h.01s0,.01.01.01Z"/><path class="cls-1" d="m18.56,56.12s0,.04.01.06c0,.01,0,.02.01.03,0,0,0,.02.01.03,0,.01.01.03.02.04,0,0,0,0,0,.01,0,.01.02.02.02.03,0,0,0,.01.01.02,0,0,0,0,0,0s0,0,0,0c0,0,.01,0,.02.01,0,0,.02.02.03.02,0,0,0,0,.01,0,.01,0,.03.01.04.02,0,0,.02,0,.03.01.01,0,.02,0,.03.01.02,0,.04,0,.06.01,0,0,0,0,0,0,.07.01.14.02.22.02,0,0,.02,0,.03,0,0,0,0,0,.01,0,.26,0,.57-.05.87-.04,0,0,0,.01.01.02.21.31.35.5.49.53.24.08.47-.23,1.04-1.1.04-.05.08-.11.12-.17.24.13.4.22.53.24.29.06.4-.18.59-.95.05-.15.09-.33.15-.53.56.12.79.13.85-.15.03-.12.01-.3-.03-.55,0-.04-.01-.07-.02-.11-.19-1.2.23-2.17,1.15-3.08.09.87.12,1.63-.18,2.38-.02.03-.03.06-.05.09-.07.11-.11.22-.15.35-.17.36-.21.62-.13.79.03.19.16.26.44.27.09.02.2.03.32.03.01.05.02.1.03.15-.06.3.03.49.19.62.1.16.26.27.53.29.11.05.21.11.3.18.04.06.07.13.11.18.04.05.08.1.11.14.03.05.08.1.14.14.15.12.32.15.56-.02.12-.04.24-.11.35-.1.52.04.79.05.91-.09.08-.08.1-.23.07-.46-.01-.12-.03-.28-.06-.46.42-.3.59-.42.43-.69-.06-.11-.17-.24-.33-.4-.03-.03-.06-.06-.1-.09-.09-.09-.2-.19-.32-.31,0,0,0-.02,0-.03.06-.13.09-.24.09-.33.08-.44-.39-.5-.78-.65-.04-.02-.08-.04-.11-.06.12-.36.05-.54-.13-.64-.1-.07-.27-.09-.55-.09-.5,0-.81-.16-.9-.46-.05-.17-.03-.38.06-.63.15-.4.41-.76.65-1.16.05-.08.11-.17.16-.25h0c-.27-.28-.57-.58-.83-.83h0c-.09.05-.17.1-.25.16-.4.25-.76.5-1.16.65-.25.1-.46.11-.63.06-.3-.09-.46-.41-.46-.9,0-.28-.02-.45-.09-.55-.09-.17-.28-.24-.64-.13-.02-.03-.04-.07-.06-.11-.16-.39-.21-.86-.65-.78-.09,0-.2.04-.33.09,0,0-.02,0-.03,0-.11-.12-.22-.22-.31-.32-.03-.04-.06-.07-.09-.1-.16-.17-.29-.28-.4-.33-.27-.16-.4,0-.69.43-.18-.03-.33-.05-.46-.06-.23-.03-.38-.01-.46.07-.13.12-.13.39-.09.91,0,.11-.06.23-.1.35-.17.24-.14.41-.02.56.04.06.09.12.14.14.05.04.09.08.14.11.05.04.12.07.18.11.07.09.13.19.18.3.02.27.13.43.29.53.13.16.32.25.62.19.05,0,.1.02.15.03,0,.12.02.22.03.32,0,.28.08.41.27.44.17.08.43.04.79-.13.12-.04.24-.09.35-.15.03-.02.06-.04.09-.05.75-.3,1.51-.27,2.38-.18-.91.93-1.88,1.34-3.08,1.15-.04,0-.07-.01-.11-.02-.25-.04-.43-.05-.55-.03-.28.05-.27.29-.15.85-.2.06-.37.11-.53.15-.78.19-1.01.3-.95.59.02.13.11.29.24.53-.06.04-.11.08-.17.12-.87.57-1.19.8-1.1,1.04.04.14.23.28.53.49,0,0,.01,0,.02.01,0,.29-.04.61-.04.87,0,0,0,0,0,.01,0,0,0,.02,0,.03,0,.08,0,.15.02.22,0,0,0,0,0,0Z"/></g></svg>