<?xml version="1.0" encoding="UTF-8"?><svg id="Layer_1" xmlns="http://www.w3.org/2000/svg" viewBox="0 0 75 75"><defs><style>.cls-1{fill:#fff;}.cls-2{fill:#39c;opacity:.81;}</style></defs><rect class="cls-2" x="-.25" y="-.25" width="75" height="75"/><path class="cls-1" d="m32.14,64.28c-3.44-.68-6.74-2-9.61-3.87-5.18-3.39-7.51-9.13-6.91-15.2.38-3.79,1.84-7.07,4.58-9.74.12-.11.23-.23.36-.33.06-.04.14-.05.39-.14-.51,2.47-.12,4.74.74,6.93.83,2.12,2.36,3.06,4.23,2.75,1.96-.32,3.47-1.84,3.42-4-.06-2.47-.31-4.97-.82-7.38-1.36-6.45.39-12.06,4.5-16.96,1.77-2.11,3.94-3.88,5.94-5.79.16-.15.41-.22.66-.34-.51,2.25-1.09,4.4-1.47,6.59-.69,3.97-.6,7.9,1.27,11.59,1.36,2.67,3.53,4.46,6.43,5.27,1.78.5,2.65-.18,2.71-2.04.09-2.99-.82-5.79-1.73-8.59-.12-.37-.25-.74-.37-1.1.1-.09.21-.18.31-.26,1.89,1.7,3.94,3.25,5.62,5.14,3.14,3.55,5.46,7.63,6.51,12.31,1.51,6.8.15,12.99-4.36,18.32-5.53,6.52-14.32,8.46-22.39,6.86Z"/></svg>