<?xml version="1.0" encoding="UTF-8"?><svg id="Layer_1" xmlns="http://www.w3.org/2000/svg" viewBox="0 0 75 75"><defs><style>.cls-1{fill:#fff;}.cls-2{fill:#39c;opacity:.81;}</style></defs><rect class="cls-2" x="0" y="0" width="75" height="75"/><g><g><path class="cls-1" d="m40.97,25.04h-2.05c-.29,0-.53.15-.53.34v.92c0,.19.24.34.53.34h2.05c.29,0,.53-.15.53-.34v-.92c0-.19-.24-.34-.53-.34Z"/><path class="cls-1" d="m45.54,25.04h-2.05c-.29,0-.53.15-.53.34v.92c0,.19.24.34.53.34h2.05c.29,0,.53-.15.53-.34v-.92c0-.19-.24-.34-.53-.34Z"/><path class="cls-1" d="m29.76,26.64h2.05c.29,0,.53-.15.53-.34v-.92c0-.19-.24-.34-.53-.34h-2.05c-.29,0-.53.15-.53.34v.92c0,.19.24.34.53.34Z"/><path class="cls-1" d="m33.81,25.38v.92c0,.19.24.34.53.34h2.05c.29,0,.53-.15.53-.34v-.92c0-.19-.24-.34-.53-.34h-2.05c-.29,0-.53.15-.53.34Z"/><path class="cls-1" d="m41.12,27.5h-2.18c-.29,0-.53.15-.53.34v.98c0,.19.24.34.53.34h2.18c.29,0,.53-.15.53-.34v-.98c0-.19-.24-.34-.53-.34Z"/><path class="cls-1" d="m46.4,27.84c0-.19-.24-.34-.53-.34h-2.18c-.29,0-.53.15-.53.34v.98c0,.19.24.34.53.34h2.13c.19-.16.38-.32.58-.48v-.85Z"/><path class="cls-1" d="m29.43,29.17h2.18c.29,0,.53-.15.53-.34v-.98c0-.19-.24-.34-.53-.34h-2.18c-.29,0-.53.15-.53.34v.98c0,.19.24.34.53.34Z"/><path class="cls-1" d="m33.66,27.84v.98c0,.19.24.34.53.34h2.18c.29,0,.53-.15.53-.34v-.98c0-.19-.24-.34-.53-.34h-2.18c-.29,0-.53.15-.53.34Z"/><path class="cls-1" d="m41.65,30.2c0-.19-.24-.34-.53-.34h-2.38c-.29,0-.53.15-.53.34v1.09c0,.19.24.34.53.34h2.38c.29,0,.53-.15.53-.34v-1.09Z"/><path class="cls-1" d="m43.39,29.86c-.29,0-.53.15-.53.34v1.09c0,.19.24.34.53.34h.04c.51-.61,1.05-1.21,1.65-1.78h-1.69Z"/><path class="cls-1" d="m31.95,31.63c.29,0,.53-.15.53-.34v-1.09c0-.19-.24-.34-.53-.34h-2.06c.59.57,1.14,1.16,1.65,1.78h.42Z"/><path class="cls-1" d="m36.78,30.2c0-.19-.24-.34-.53-.34h-2.38c-.29,0-.53.15-.53.34v1.09c0,.19.24.34.53.34h2.38c.29,0,.53-.15.53-.34v-1.09Z"/><path class="cls-1" d="m38.74,34.07h2.38c.29,0,.53-.15.53-.34v-1.09c0-.19-.24-.34-.53-.34h-2.38c-.29,0-.53.15-.53.34v1.09c0,.19.24.34.53.34Z"/><path class="cls-1" d="m36.25,32.29h-2.38c-.29,0-.53.15-.53.34v1.09c0,.19.24.34.53.34h2.38c.29,0,.53-.15.53-.34v-1.09c0-.19-.24-.34-.53-.34Z"/><path class="cls-1" d="m41.22,34.66h-2.47c-.29,0-.53.15-.53.34v1.13c0,.19.24.34.53.34h1.46c.32-.59.67-1.2,1.05-1.82-.01,0-.03,0-.04,0Z"/><path class="cls-1" d="m36.22,36.48c.29,0,.53-.15.53-.34v-1.13c0-.19-.24-.34-.53-.34h-2.47s-.04,0-.07,0c.37.61.72,1.22,1.04,1.82h1.5Z"/><path class="cls-1" d="m39.94,37h-1.42c-.29,0-.53.15-.53.34v1.26c0,.19.24.34.53.34h.47c.11-.25.22-.49.34-.74.19-.39.39-.79.61-1.21Z"/><path class="cls-1" d="m35.95,38.95h.49c.29,0,.53-.15.53-.34v-1.26c0-.19-.24-.34-.53-.34h-1.43c.21.41.41.82.61,1.21.12.25.23.49.34.74Z"/><path class="cls-1" d="m38.29,39.59c-.29,0-.53.15-.53.34v1.4c0,.12.1.23.25.29.19-.67.43-1.35.71-2.03h-.44Z"/><path class="cls-1" d="m37.17,41.33v-1.4c0-.19-.24-.34-.53-.34h-.42c.28.68.52,1.36.71,2.03.14-.06.24-.17.24-.29Z"/><path class="cls-1" d="m38.69,24.24h2.02c.29,0,.53-.15.53-.34v-.9c0-.19-.24-.34-.53-.34h-2.02c-.29,0-.53.15-.53.34v.9c0,.19.24.34.53.34Z"/><path class="cls-1" d="m42.42,22.99v.9c0,.19.24.34.53.34h2.02c.29,0,.53-.15.53-.34v-.9c0-.19-.24-.34-.53-.34h-2.02c-.29,0-.53.15-.53.34Z"/><path class="cls-1" d="m30.15,24.24h2.02c.29,0,.53-.15.53-.34v-.9c0-.19-.24-.34-.53-.34h-2.02c-.29,0-.53.15-.53.34v.9c0,.19.24.34.53.34Z"/><path class="cls-1" d="m36.44,24.24c.29,0,.53-.15.53-.34v-.9c0-.19-.24-.34-.53-.34h-2.02c-.29,0-.53.15-.53.34v.9c0,.19.24.34.53.34h2.02Z"/><path class="cls-1" d="m40.82,20.34h-2.02c-.29,0-.53.15-.53.34v.9c0,.19.24.34.53.34h2.02c.29,0,.53-.15.53-.34v-.9c0-.19-.24-.34-.53-.34Z"/><path class="cls-1" d="m42.72,20.34c-.29,0-.53.15-.53.34v.9c0,.19.24.34.53.34h2.02c.29,0,.53-.15.53-.34v-.9c0-.19-.24-.34-.53-.34h-2.02Z"/><path class="cls-1" d="m30.49,21.93h2.02c.29,0,.53-.15.53-.34v-.9c0-.19-.24-.34-.53-.34h-2.02c-.29,0-.53.15-.53.34v.9c0,.19.24.34.53.34Z"/><path class="cls-1" d="m36.9,20.68c0-.19-.24-.34-.53-.34h-2.02c-.29,0-.53.15-.53.34v.9c0,.19.24.34.53.34h2.02c.29,0,.53-.15.53-.34v-.9Z"/><path class="cls-1" d="m40.71,17.98h-1.93c-.29,0-.53.15-.53.34v.86c0,.19.24.34.53.34h1.93c.29,0,.53-.15.53-.34v-.86c0-.19-.24-.34-.53-.34Z"/><path class="cls-1" d="m42.06,18.32v.86c0,.19.24.34.53.34h1.93c.29,0,.53-.15.53-.34v-.86c0-.19-.24-.34-.53-.34h-1.93c-.29,0-.53.15-.53.34Z"/><path class="cls-1" d="m30.71,19.52h1.93c.29,0,.53-.15.53-.34v-.86c0-.19-.24-.34-.53-.34h-1.93c-.29,0-.53.15-.53.34v.86c0,.19.24.34.53.34Z"/><path class="cls-1" d="m36.92,18.32c0-.19-.24-.34-.53-.34h-1.93c-.29,0-.53.15-.53.34v.86c0,.19.24.34.53.34h1.93c.29,0,.53-.15.53-.34v-.86Z"/><path class="cls-1" d="m38.72,17.19h1.64c.29,0,.53-.15.53-.34v-.71c0-.19-.24-.34-.53-.34h-1.64c-.29,0-.53.15-.53.34v.71c0,.19.24.34.53.34Z"/><path class="cls-1" d="m42.16,15.8c-.29,0-.53.15-.53.34v.71c0,.19.24.34.53.34h1.64c.29,0,.53-.15.53-.34v-.71c0-.19-.24-.34-.53-.34h-1.64Z"/><path class="cls-1" d="m31.43,17.19h1.64c.29,0,.53-.15.53-.34v-.71c0-.19-.24-.34-.53-.34h-1.64c-.29,0-.53.15-.53.34v.71c0,.19.24.34.53.34Z"/><path class="cls-1" d="m36.99,16.14c0-.19-.24-.34-.53-.34h-1.64c-.29,0-.53.15-.53.34v.71c0,.19.24.34.53.34h1.64c.29,0,.53-.15.53-.34v-.71Z"/><path class="cls-1" d="m38.68,15.11h1.43c.29,0,.53-.15.53-.34v-.6c0-.19-.24-.34-.53-.34h-1.43c-.29,0-.53.15-.53.34v.6c0,.19.24.34.53.34Z"/><path class="cls-1" d="m41.32,14.17v.6c0,.19.24.34.53.34h1.43c.29,0,.53-.15.53-.34v-.6c0-.19-.24-.34-.53-.34h-1.43c-.29,0-.53.15-.53.34Z"/><path class="cls-1" d="m31.95,15.11h1.43c.29,0,.53-.15.53-.34v-.6c0-.19-.24-.34-.53-.34h-1.43c-.29,0-.53.15-.53.34v.6c0,.19.24.34.53.34Z"/><path class="cls-1" d="m37.04,14.17c0-.19-.24-.34-.53-.34h-1.43c-.29,0-.53.15-.53.34v.6c0,.19.24.34.53.34h1.43c.29,0,.53-.15.53-.34v-.6Z"/><path class="cls-1" d="m38.61,13.25h1.1c.29,0,.53-.15.53-.34v-.43c0-.19-.24-.34-.53-.34h-1.1c-.29,0-.53.15-.53.34v.43c0,.19.24.34.53.34Z"/><path class="cls-1" d="m40.82,12.48v.43c0,.19.24.34.53.34h1.1c.29,0,.53-.15.53-.34v-.43c0-.19-.24-.34-.53-.34h-1.1c-.29,0-.53.15-.53.34Z"/><path class="cls-1" d="m32.78,13.25h1.1c.29,0,.53-.15.53-.34v-.43c0-.19-.24-.34-.53-.34h-1.1c-.29,0-.53.15-.53.34v.43c0,.19.24.34.53.34Z"/><path class="cls-1" d="m37.11,12.48c0-.19-.24-.34-.53-.34h-1.1c-.29,0-.53.15-.53.34v.43c0,.19.24.34.53.34h1.1c.29,0,.53-.15.53-.34v-.43Z"/><path class="cls-1" d="m38.49,11.65h.54c.29,0,.53-.15.53-.34v-.14c0-.19-.24-.34-.53-.34h-.54c-.29,0-.53.15-.53.34v.14c0,.19.24.34.53.34Z"/><path class="cls-1" d="m40,11.17v.14c0,.19.24.34.53.34h.54c.29,0,.53-.15.53-.34v-.14c0-.19-.24-.34-.53-.34h-.54c-.29,0-.53.15-.53.34Z"/><path class="cls-1" d="m34.15,11.65h.54c.29,0,.53-.15.53-.34v-.14c0-.19-.24-.34-.53-.34h-.54c-.29,0-.53.15-.53.34v.14c0,.19.24.34.53.34Z"/><path class="cls-1" d="m37.24,11.17c0-.19-.24-.34-.53-.34h-.54c-.29,0-.53.15-.53.34v.14c0,.19.24.34.53.34h.54c.29,0,.53-.15.53-.34v-.14Z"/><path class="cls-1" d="m38,10.44c.29,0,.53-.15.53-.34v-.14c0-.19-.24-.34-.53-.34h-.54c-.29,0-.53.15-.53.34v.14c0,.19.24.34.53.34h.54Z"/><path class="cls-1" d="m38.97,10.09c0,.19.24.34.53.34h.54c.29,0,.53-.15.53-.34v-.14c0-.19-.24-.34-.53-.34h-.54c-.29,0-.53.15-.53.34v.14Z"/><path class="cls-1" d="m35.14,10.44h.54c.29,0,.53-.15.53-.34v-.14c0-.19-.24-.34-.53-.34h-.54c-.29,0-.53.15-.53.34v.14c0,.19.24.34.53.34Z"/><path class="cls-1" d="m36.82,9.19h.25c.27,0,.49-.14.49-.32h0c0-.18-.22-.32-.49-.32h-.25c-.27,0-.49.14-.49.32h0c0,.18.22.32.49.32Z"/><path class="cls-1" d="m38.37,9.19h.25c.27,0,.49-.14.49-.32h0c0-.18-.22-.32-.49-.32h-.25c-.27,0-.49.14-.49.32h0c0,.18.22.32.49.32Z"/></g><path class="cls-1" d="m45.66,64.17v-1.5l1.2-1.56c0,.08.02-5.44.05-11.84,0-.24,0-.48,0-.71.01-3.35.03-6.89.04-9.97,0-.22,0-.44,0-.65.02-4.51.03-7.88.03-7.88-.05,0-.1,0-.15.02-.02,0-.04.01-.07.02,0,0-.01,0-.02,0,.03-.08.06-.15.08-.21-.12.07-.26.15-.42.23-.02,0-.03.02-.04.02.04-.09.07-.18.1-.25-.12.07-.26.15-.42.23-.15.08-.3.16-.36.2-3.61,2.56-5.54,7.54-6.81,11.6-.42,1.32-.73,2.63-.95,3.9-.03.15-.05.31-.08.47-.11.63-.22,1.26-.28,1.89-.02.21-.03.41-.04.62,0,.1,0,.2,0,.3,0,.13,0,.25-.01.37.02-.14-.02-.28-.02-.42,0-.16,0-.31-.01-.47-.02-.32-.05-.64-.09-.96-.06-.45-.14-.89-.22-1.34-.03-.16-.06-.32-.08-.47-.21-1.27-.53-2.58-.95-3.9-1.27-4.05-3.2-9.03-6.81-11.6-.06-.04-.21-.12-.36-.2-.15-.08-.29-.15-.42-.23.03.07.06.16.1.25-.01,0-.03-.02-.04-.02-.15-.08-.29-.15-.42-.23.03.06.05.13.08.21,0,0-.01,0-.02,0-.02,0-.04-.01-.07-.02-.05-.01-.1-.02-.15-.02,0,0,.01,3.36.03,7.88,0,.21,0,.43,0,.65.01,3.08.03,6.62.04,9.97,0,.24,0,.48,0,.71.02,6.4.05,11.92.05,11.84l1.2,1.56v1.5l-1.35,1.35v.93h19.01v-.93l-1.35-1.35Z"/></g></svg>