<?xml version="1.0" encoding="UTF-8"?><svg id="Layer_1" xmlns="http://www.w3.org/2000/svg" viewBox="0 0 75 75"><defs><style>.cls-1{fill:#fff;}.cls-2{fill:#0d9721;}.cls-3{fill:#093;opacity:.81;}</style></defs><rect class="cls-3" y="0" width="75" height="75"/><g><g><g><path class="cls-1" d="m12.46,31.75c10.71-4.44,24.12-5.18,32.3-4.03,4.66-.08,9.11.79,13.54,2.04,1.56.51.83,1.06,1.65,1.5,1.14.47,2.51.64,3.41,1.42,1.42,1.4-2.02-4.86-3.58-5.5-.94-.54-2.31,0-3.36-.37-.52-.66-1.25-.37-2.02-.29-4.85-.54-4.16-1.49-9.63-.64-7.6-1.23-15.01-.26-22.63-.13-2.08.06-3.65.33-6,.79-1.48.62-5.72,5.84-3.68,5.2Z"/><path class="cls-1" d="m62.99,39.59c-1.27,1.05-3.38,1.13-5.02,1.06-.5.03.53.37-.39.43-.11,0-.22.03-.32.06-4.94,1.72-10.18,1.9-15.3,1.87-.38,1.87-4.06.11-5.68,1.4-8,1.28-15.8-.28-23.39-.58-1.81-.92,1.61,3.44,1.11,1.86,1.41-.22,3.2.89,4.87.74,1.09.85,1.87.3,3.2.6.45.38,1.22.47,1.09.73-.04.07.02.15.1.16.12,0,.24.02.35,0,2.15.5,2.2-.25,4.32-.28,5.67,1.43,10.98.3,16.68.15,5.07-.99,11.69-1.94,16.62-5.24,1.27-.18,1.35-3.17,2.4-.67.51-1.4,1.22-5.2-.64-2.28Z"/><path class="cls-1" d="m63.73,35.23c.13,1.03-2.49,0-4.31-.22-.19-.02-.43.1-.42.29.01.53-16.59,1.86-18.55,1.38-.04,0-.07-.01-.11-.01-6.71.33-13.4-.96-19.74,1.67-.02,0-.03.01-.05.02-2.88.72-5.66.08-8.51,1.21-.02,0-.04.01-.06.02-2.22.42-.41,3.45,1.52,2.61.03-.01.06-.02.1-.03,1.36-.14,3.55-.07,4.29-.25.03,0,.06-.02.09-.04,1.26-.8,3.96-1.24,4.73.13.07.12.19.19.32.19,1.15-.03.87-.81,1.72-.91.1-.01.2-.07.26-.16.52-.77,1.16-.64,2.2-.64,2.12.03,4.2.88,6.35.91.12,0,.18-.15.09-.23-.12-.11-.3-.22-.39-.3-.74-.8.8-.22,1.41.09.11.06.25.01.3-.11.18-.49.72-.25,1.2-.76.21-.31.61-.16.73.03.06.1.17.15.29.11,2.99-1,6.07.31,9.13-.3.08-.02.16,0,.23.03,1.3.62,2.82.4,4.18.29.23-.02,0-.3.16-.49,1.01-1.21,3.05-.32,4.58-.57.17-.03.26-.18.27-.34.02-.19.86-.13,1.27-.15.11,0,.21-.07.26-.17.03-.05.07-.09.13-.12.09-.06.17-.15.18-.26,0-.03.02-.07.06-.11,1.08-.41,2.34-.05,3.47-.31,1.06-.1,1.65-1.09,2.82-.87.21.04.41-.12.41-.34.01-1.12-.53-3.08-.59-1.29Z"/><path class="cls-1" d="m11.29,36.94c3.64-1.74,7.07-2.88,11.15-2.28.13.02.26,0,.38-.06,3.29-1.65,7.75-1.19,12.7-1.34,7.94.01,16.2-1.56,23.79.76.55.23,1.43-.07,2.13.12.58-.11-.88-.17-1.09-.21-.34-.04-.48-.18-.44-.35.03-.13-.08-.25-.21-.25-1.63-.05-2.66-1.64-4.36-1.87-1.35-.75-4.31-.4-5.23-1.1-.15-.11-.33-.16-.51-.15-4.56.2-9.27-.15-13.75.42-3.99.1-8.51-.79-12.21,1.02-.61.29-3.59.42-3.25-.25.04-.08-.03-.17-.12-.15-1.08.23-1.02-.18-2.33.7-3.25.82-8-.59-7.18,4.62.03.48-.02.58.52.39Z"/></g><path class="cls-1" d="m21.06,49.57c-1.22-1.22-3.28-.8-5.03-1.72-1.9,0,9.07,3.55,5.03,1.72Z"/><path class="cls-1" d="m60.6,45.56c-.39-.09.64.84-.65,1.06-.15.03-.31-.04-.41-.16-1.8-2.32-11.74,4.14-15.65,3.61,4.8.41,15.49-.02,17.05-3.83.11-.28-.05-.61-.34-.68Z"/></g><path class="cls-1" d="m61.62,44.63s.09.03.11.03c.04,0,.09,0,.12.04.08.08.1.21.09.32,0,.06-.03.12-.05.17.18-.25.36-.5.52-.76-.02.03-.1.06-.13.08-.05.03-.11.05-.16.06-.08.02-.16.04-.25.04s-.16-.02-.25.01Z"/><path class="cls-2" d="m54.97,24.86c.14.06.29.08.45.08-.17-.05-.35-.09-.52-.13.02.02.04.03.07.05Z"/></g></svg>