<?xml version="1.0" encoding="UTF-8"?><svg id="Layer_1" xmlns="http://www.w3.org/2000/svg" viewBox="0 0 75 75"><defs><style>.cls-1{fill:#fff;opacity:.87;}</style></defs><path class="cls-1" d="m68.34,39.11c-2.11-3.26-5.03-7.07-4.63-10.31.51-.5,1.37-.76,1.47-.93,2.12,1.51,3.75,7.84,4.39,3.33.26-6.51-8.74-5.45-4.52-4.6-.98-.16-1.46-4.1-3.05-6.32-1.65-1.13-5.53-1.99-4.68-4.59,7.03-6,3.26-3.8-2.39-4.82-2.96-.29-2.8,3-4.18,4.36-16.59.15-3.35-14.15-22.6-.88,0,0-.05.03-.05.03-4.52.84-1.72-3.7-6.3-3.2-.88-1.01.27-5.6-1.76-4.29-2.84,3.24-3.24,4.97-2.87,8.68-.8.21-1.78-.4-2.43.53-1.96.5-6.92,4.24-4.52,6.13,1.31.64-1.22,1.53-1.12,2.68-.6,2.93-2.15,1.58-4,2.57,1.28,3.02,5.61,5.45,8.99,5.54,2.25.47,4.73-1.72,6.55-.97,3.88,7.16,12.87,8.84,20.12,6.63,2.03-.3,7.3-5.65,8.2-3.59,2.97,3.19-2.41,3.3-.23,5.36,3.12,3.35-4.7,5.58-7.38,6.02h0c-4.31,3.03,3.26,5.3,5.09,7.01.97.89-.57,2.11.42,2.98,2.13,2.88-2.32,5.67-2.21,8.71-.27,1.17-.21,1.83.07,2.15.23.27.48.42.74.48l1.31.53s-.02,0-.02,0c.01,0,.02,0,.03,0h0s.03,0,.03,0c4.44-.82,7.9-4.82,11.16-7.75,1.35-2.85,2.29-6,4.05-8.53.71-.37,1.01-.64,1.05-.8,6.37-2.93,8.67-2.23,5.28-12.14Z"/></svg>