<?xml version="1.0" encoding="UTF-8"?><svg id="Layer_1" xmlns="http://www.w3.org/2000/svg" viewBox="0 0 75 75"><defs><style>.cls-1{fill:#fff;}.cls-1,.cls-2{stroke:#fff;stroke-miterlimit:10;}.cls-2{fill:none;}</style></defs><path class="cls-1" d="m20.09,33.44c1.54-6.6,6.74-11.8,13.34-13.34v-.75c-7,1.57-12.52,7.09-14.09,14.09h.75Z"/><path class="cls-1" d="m41.56,20.09c6.6,1.54,11.8,6.74,13.34,13.34h.75c-1.57-7-7.09-12.52-14.09-14.09v.75Z"/><path class="cls-1" d="m33.44,54.91c-6.6-1.54-11.8-6.74-13.34-13.34h-.75c1.57,7,7.09,12.52,14.09,14.09v-.75Z"/><path class="cls-1" d="m54.91,41.56c-1.54,6.6-6.74,11.8-13.34,13.34v.75c7-1.57,12.52-7.09,14.09-14.09h-.75Z"/><circle class="cls-2" cx="37.5" cy="37.5" r="1.99"/></svg>