<?xml version="1.0" encoding="UTF-8"?><svg id="Layer_1" xmlns="http://www.w3.org/2000/svg" viewBox="0 0 75 75"><defs><style>.cls-1{fill:#fff;}</style></defs><g><path class="cls-1" d="m34.83,24.1c.56-.63,1.13-1.24,1.16-2,0-.11.15-.21.3-.18.09.01.17,0,.23-.05-.22,0-.44,0-.65,0-.57,0-1.11.23-1.06,1.04.02.4.02.8.02,1.2Z"/><path class="cls-1" d="m32.26,62.08c1.12.89,2.42,1.56,3.83,1.96-1.7-1.15-1.08-3.75-1.77-5.72-1.06-1.13-.56-1.08-.84-2.02-.02-.07.09-.14.18-.1.81.3.66-2.29.31-2.82-2.17-3.21-1.11-7.13-1.23-10.6-.68-3.89-.27-7.98-.51-11.93,0-.16.05-.32.18-.44.53-.51.56-1.72.74-2.84-.53.66-1.14,1.27-1.88,1.78-.69.34-1.29.81-1.79,1.38-.29,1.72-.45,3.46-.42,5.25-.99,6.51-.35,17.17,3.48,25.69.12.36,0,.48-.29.42Z"/><path class="cls-1" d="m36.83,22.44c-2.79,6.59-.9,13.75-.91,20.64.18,4.29-.37,8.17,1.62,11.02.07.1.1.22.08.33-.72,3.54.66,6.52,2.75,9.68.09.19.12.29.09.35h2.69c-1.14-2.31-.49-4.55-1.25-6.88,0-.01-.01-.03-.02-.04-2.84-5.21-1.45-10.72-1.81-16.23,0-.03,0-.06.01-.09.53-1.61-.92-15.26-1.49-15.25-.2,0-.34-.19-.31-.35.24-1.5,1.35-3.66.23-3.55-.77-.02-.89-.1-.69-.19-.3,0-.6,0-.9,0,0,.21-.01.41-.11.57Z"/><path class="cls-1" d="m40.28,21.87s0,.03,0,.05c-.25.97.83,1.45.94,2.32.27.93-.11,1.97.33,2.86.04.03.08.05.12.05.12,0,.21.07.28.15.03.04.08.08.13.1.1.05.18.13.18.22.03.34-.05,1.03.16,1.04.18.01.34.09.37.23.27,1.26-.69,2.93.62,3.76.2.13.51-.05.53.13.11,1.12.35,2.36-.32,3.43-.04.06-.05.12-.03.19.66,2.52-.76,5.05.32,7.51.04.09-.01.18-.12.23-.2.1-.37.42-.03.6.56.39.3.83.83.98.13.04.18.15.12.24-.34.51-.96,1.77-.1,1.16.09-.08.21-.22.33-.32.09-.08.25-.03.25.07-.03,1.76-.95,3.48-.99,5.22,0,.86-.14,1.39.69,1.81.09.05.15.13.17.21.11.69.96.47.99,1.41,0,.11-.08.21-.2.27-1.48.63-1,2.85-.14,3.89.02.02.04.05.04.08.2.6.13,2.41.28,3.53,0,.03.01.05.03.08.16.27.18.54.12.8.55-.13,1.08-.3,1.6-.5.01-.02.03-.04.04-.07.32-6.2,2.01-12.58.63-19.11-1.4-1.33.51-4.33-1.51-4.64.03-4.18-.16-8.46-2.02-12.5-.04-.09-.06-.17-.07-.27-.06-.75-.43.09-.46-.32.07-1.33,0-3.06-1.15-4.1-.81-.39-1.13-.64-1.16-.79-.6,0-1.2,0-1.8,0Z"/><path class="cls-1" d="m53.63,58.16c-.26.49-.56,1.02-.85,1.48.32-.47.61-.96.85-1.48Z"/><path class="cls-1" d="m54.69,37.72c0,.11-.01.21-.03.31.01-.1.02-.21.03-.31.07-2.15-2.65-6.08-3.93-8.97-.1-.08-.19-.16-.28-.25-1.01-.98-1.76-2.14-2.43-3.36-.06-.1-.07-.24-.07-.37,0-.68,0-1.37,0-2.05,0-.39-.2-.69-.57-.8-.17-.05-.36-.06-.54-.06-.8,0-1.59,0-2.39,0,.46.08.9.18,1.22.27-2.7.86.53.93.72,1.96,3.56,4.03,4.59,9.44,5.66,13.58.17,4.65,1.39,8.99-.16,13.63.04,1.73.85,1.77.31,3.53.02.09,0,.19,0,.29,0,.06-.1.11-.17.08-.27-.11-.37.52-.78.89-.32,1.09.28,1.73-.64,2.62.16,1.33-.97,2.74-.81,3.88.78-.52,1.48-1.14,2.1-1.84-.07.03-.11,0-.11-.13.99-1.14.54-2.48,1.86-3.27.29-.38.45-.55.52-.58.33-1.05.51-2.16.51-3.31v-15.8s0,.04,0,.06Z"/></g><path class="cls-1" d="m36.19,13.88v3.86h-3.74c-.32.63-.2,1.25-.19,1.86,0,.55-.22.94-.64,1.25-1.6,1.19-3.21,2.37-4.81,3.56-.12.09-.23.2-.29.33-1.48,2.82-2.53,5.8-3.23,8.9-.49,2.15-.82,4.32-1,6.51-.18,2.19-.3,4.39-.16,6.59.12,1.97.29,3.94.47,5.9.05.53.2,1.04.3,1.57.03.17.08.33.09.5.05.52-.24.73-.74.55-.44-.16-.64-.54-.73-.95-.24-1.08-.47-2.17-.66-3.26-.47-2.79-.6-5.6-.52-8.43.06-2.1.28-4.19.61-6.27.62-3.89,1.65-7.66,3.03-11.35,1.41-3.79,3.12-7.43,5.25-10.87.12-.2.25-.27.48-.27,2.05,0,4.1,0,6.15,0,.1,0,.21,0,.33,0Zm-4.99,6.43c.32,0,.58-.24.59-.55,0-.3-.26-.57-.57-.57-.3,0-.58.27-.57.57,0,.29.26.55.55.55Z"/><path class="cls-1" d="m36.68,18.25c0-.29,0-.56,0-.82,0-1.34,0-2.69,0-4.03,0-.22.08-.3.29-.3,3.2,0,6.41,0,9.61,0,.24,0,.31.07.31.31,0,2.4,0,4.8,0,7.21,0,.25-.1.3-.32.3-4.52,0-9.03,0-13.55,0-.26,0-.33-.1-.32-.34.01-.66.01-1.32,0-1.99,0-.26.08-.35.35-.35,1.09.01,2.18,0,3.27,0,.12,0,.23,0,.37,0Z"/><path class="cls-1" d="m47.37,16.6c0-1.09,0-2.14,0-3.18,0-.59-.22-.8-.81-.8-.63,0-1.25,0-1.81,0,.54-.58,1.06-1.22,1.68-1.77.52-.46,1.34-.37,1.85.11.48.44.94.9,1.38,1.38.54.59.53,1.47-.02,2.03-.7.73-1.43,1.44-2.15,2.15-.02.02-.05.03-.13.08Z"/></svg>