<?xml version="1.0" encoding="UTF-8"?><svg id="Layer_1" xmlns="http://www.w3.org/2000/svg" viewBox="0 0 75 75"><defs><style>.cls-1{fill:#ff0;}</style></defs><path class="cls-1" d="m37.09,67.65l-5.95-15.06c-.42-1.07-1.6-1.64-2.7-1.3l-15.48,4.74c-.38.12-.71-.3-.51-.64l8.07-14.04c.57-1,.28-2.27-.67-2.92l-13.36-9.15c-.33-.23-.21-.74.18-.8l16-2.45c1.14-.17,1.95-1.19,1.87-2.34l-1.18-16.15c-.03-.4.45-.63.74-.36l11.89,10.99c.85.78,2.15.78,3,0l11.89-10.99c.29-.27.77-.04.74.36l-1.18,16.15c-.08,1.15.73,2.17,1.87,2.34l16,2.45c.4.06.51.58.18.8l-13.36,9.15c-.95.65-1.24,1.92-.67,2.92l8.07,14.04c.2.35-.13.76-.51.64l-15.48-4.74c-1.1-.34-2.28.23-2.7,1.3l-5.95,15.06c-.15.37-.68.37-.82,0Z"/><g><path d="m37.01,30.93c0-.06,0-.12,0-.17,0-.01,0-.02,0-.03.01-.22.04-.42.09-.61.2-.71.4-1.41.59-2.12.02-.07.05-.07.07,0,.18.71.37,1.42.55,2.13.1.4.11.81.04,1.24-.12.68-.44,1.08-.77.96-.28-.1-.5-.55-.56-1.15,0-.08-.01-.16-.02-.24Z"/><g><path d="m40.72,31.85s.07-.1.1-.14c0,0,.01-.02.02-.03.13-.17.27-.32.42-.45.56-.47,1.12-.94,1.69-1.42.05-.05.08-.03.05.04-.25.69-.5,1.38-.75,2.07-.14.38-.36.73-.67,1.05-.48.49-.98.64-1.18.36-.18-.24-.1-.74.19-1.27.04-.07.08-.14.12-.21Z"/><path d="m43.8,35.5c.06-.01.11-.03.17-.04.01,0,.02,0,.03,0,.21-.04.42-.06.61-.05.73.02,1.47.05,2.2.08.07,0,.08.03.01.06-.65.35-1.29.69-1.94,1.04-.36.19-.76.3-1.19.33-.69.05-1.15-.18-1.12-.52.03-.3.42-.62.99-.81.08-.03.15-.05.23-.07Z"/><path d="m43.64,40.28c.05.03.1.06.15.08,0,0,.02.01.03.02.19.11.35.24.49.37.53.51,1.06,1.02,1.59,1.53.05.05.04.07-.03.06-.71-.17-1.42-.35-2.13-.53-.4-.1-.77-.29-1.11-.55-.54-.43-.74-.9-.48-1.14.22-.2.72-.18,1.28.06.07.03.15.07.22.1Z"/><path d="m40.33,43.72c.02.05.04.11.06.16,0,.01,0,.02,0,.03.06.21.1.41.12.6.05.73.1,1.47.16,2.2,0,.07-.02.08-.06.02-.41-.61-.82-1.21-1.23-1.82-.23-.34-.38-.73-.45-1.15-.12-.68.05-1.17.4-1.17.3,0,.66.35.91.9.03.07.06.15.1.22Z"/><path d="m35.56,44.06c-.02.05-.05.11-.07.16,0,0-.01.02-.02.03-.09.2-.2.37-.32.53-.45.58-.9,1.16-1.36,1.74-.04.06-.07.04-.06-.03.1-.73.2-1.45.3-2.18.06-.4.2-.79.43-1.16.37-.58.82-.83,1.08-.6.22.2.25.7.08,1.28-.02.08-.05.15-.08.23Z"/><path d="m31.79,41.13c-.05.02-.11.05-.16.07-.01,0-.02,0-.03.01-.2.08-.4.14-.59.18-.72.13-1.45.26-2.17.38-.07.01-.08-.01-.03-.06.56-.47,1.12-.94,1.68-1.42.31-.26.68-.45,1.1-.57.66-.19,1.17-.07,1.2.28.03.3-.28.69-.8,1-.07.04-.14.08-.21.12Z"/><path d="m30.96,36.42c-.06-.02-.11-.03-.17-.05-.01,0-.02,0-.03-.01-.21-.07-.39-.16-.56-.26-.62-.39-1.25-.78-1.87-1.17-.06-.04-.05-.06.02-.06.73.02,1.46.05,2.2.07.41.01.81.12,1.2.31.62.3.91.73.71,1.01-.17.24-.67.32-1.26.21-.08-.02-.16-.04-.24-.05Z"/><path d="m33.48,32.37s-.06-.1-.09-.15c0,0,0-.02-.01-.03-.11-.19-.18-.38-.24-.57-.2-.71-.41-1.41-.61-2.12-.02-.07,0-.08.06-.03.53.51,1.06,1.01,1.58,1.52.29.28.52.63.68,1.03.25.64.19,1.15-.15,1.23-.29.06-.72-.21-1.08-.69-.05-.06-.09-.13-.14-.2Z"/></g></g></svg>